# xmcd
#
# Track frame offsets:
#	150
#	13995
#	23957
#	40337
#	46785
#	63055
#	72010
#	83612
#	92025
#	99620
#	111930
#	123922
#	133920
#	146715
#	157685
#	159137
#
# Disc length: 2408 seconds
#
# Revision: 1
# Processed by: cddbd v1.5.1PL0 Copyright (c) Steve Scherf et al.
# Submitted via: CDex 1.50Beta5
#
DISCID=c7096610
DTITLE=TVサントラ - 蒼き流星 S.P.T.レイズナーBGM集 VOL.3
DYEAR=1993
DGENRE=
TTITLE0=TVサントラ/荒廃のN.Y
TTITLE1=TVサントラ/グラドス警察隊
TTITLE2=TVサントラ/P.M.2:00
TTITLE3=TVサントラ/危機
TTITLE4=TVサントラ/S.P.T.レイズナー
TTITLE5=TVサントラ/グレスコの神殿
TTITLE6=TVサントラ/クスコの聖女隊
TTITLE7=TVサントラ/メロスのように
TTITLE8=TVサントラ/グラドス国家
TTITLE9=TVサントラ/生命
TTITLE10=TVサントラ/グレスコJr
TTITLE11=TVサントラ/グラドスの刻印
TTITLE12=TVサントラ/Newレイズナー
TTITLE13=TVサントラ/恋の予感
TTITLE14=TVサントラ/予告
TTITLE15=富沢聖子/LA ROSE ROUGE
EXTD=
EXTT0=
EXTT1=
EXTT2=
EXTT3=
EXTT4=
EXTT5=
EXTT6=
EXTT7=
EXTT8=
EXTT9=
EXTT10=
EXTT11=
EXTT12=
EXTT13=
EXTT14=
EXTT15=
PLAYORDER=
